<svg width="239" height="48" viewBox="0 0 239 48" fill="none" xmlns="http://www.w3.org/2000/svg">
<path d="M0.867297 4.888V3.15C2.5833 2.95933 3.87396 2.556 4.7393 1.94H7.0933V15.668H10.2833V18H0.911297V15.668H4.1013V4.888H0.867297ZM23.34 18H20.458V14.612H12.692V12.456L18.962 1.94H23.34V12.28H25.034V14.612H23.34V18ZM20.458 12.28V4.69L16.036 12.28H20.458ZM33.4352 20.288C34.2125 20.288 34.6012 19.8553 34.6012 18.99V5.416H37.5492V18.99C37.5492 21.3953 36.2805 22.598 33.7432 22.598C32.8045 22.598 31.9612 22.4733 31.2132 22.224L31.9392 20.002C32.4232 20.1927 32.9219 20.288 33.4352 20.288ZM36.0752 3.92C34.9752 3.92 34.4252 3.35533 34.4252 2.226C34.4252 1.082 34.9752 0.51 36.0752 0.51C37.2045 0.51 37.7692 1.082 37.7692 2.226C37.7692 3.35533 37.2045 3.92 36.0752 3.92ZM43.935 14.942C44.3164 15.6753 45.0497 16.042 46.135 16.042C47.2204 16.042 47.9537 15.6753 48.335 14.942C48.7164 14.2087 48.907 13.1307 48.907 11.708C48.907 10.2853 48.7164 9.20733 48.335 8.474C47.9537 7.74067 47.2204 7.374 46.135 7.374C45.0497 7.374 44.3164 7.74067 43.935 8.474C43.5537 9.20733 43.363 10.2853 43.363 11.708C43.363 13.1307 43.5537 14.2087 43.935 14.942ZM51.855 11.708C51.855 16.108 49.9484 18.308 46.135 18.308C42.3217 18.308 40.415 16.108 40.415 11.708C40.415 7.308 42.3217 5.108 46.135 5.108C49.9484 5.108 51.855 7.308 51.855 11.708ZM58.3626 18.308C55.7812 18.308 54.4906 16.9733 54.4906 14.304V5.416H57.4386V13.82C57.4386 14.5827 57.5852 15.1473 57.8786 15.514C58.1866 15.866 58.6926 16.042 59.3966 16.042C60.3939 16.042 61.3399 15.5727 62.2346 14.634V5.416H65.1826V18H63.2686L62.4326 16.482C61.2886 17.6993 59.9319 18.308 58.3626 18.308ZM72.268 18H69.32V5.416H70.706L71.872 7.374C72.884 5.93667 74.314 5.18133 76.162 5.108V7.638C74.4313 7.682 73.1333 8.21 72.268 9.222V18ZM87.2769 14.48C87.2769 16.988 85.5169 18.242 81.9969 18.242C80.4569 18.242 79.3129 17.912 78.5649 17.252C77.8169 16.5773 77.3476 15.602 77.1569 14.326L79.4449 13.974C79.6063 15.382 80.4789 16.086 82.0629 16.086C83.6616 16.086 84.4609 15.5873 84.4609 14.59C84.4609 14.1793 84.2996 13.8713 83.9769 13.666C83.6689 13.4607 83.0383 13.248 82.0849 13.028L81.0729 12.786C79.7676 12.478 78.8289 12.0307 78.2569 11.444C77.6996 10.8427 77.4209 9.97733 77.4209 8.848C77.4209 6.35467 79.1223 5.108 82.5249 5.108C83.9916 5.108 85.0843 5.44533 85.8029 6.12C86.5363 6.78 86.9909 7.748 87.1669 9.024L84.8789 9.354C84.7176 7.96067 83.9036 7.264 82.4369 7.264C80.9849 7.264 80.2589 7.76267 80.2589 8.76C80.2589 9.17067 80.3983 9.486 80.6769 9.706C80.9703 9.91133 81.5569 10.1167 82.4369 10.322L83.5809 10.608C84.8863 10.9307 85.8249 11.3853 86.3969 11.972C86.9836 12.544 87.2769 13.38 87.2769 14.48ZM102.243 5.108C105.617 5.108 107.303 7.308 107.303 11.708C107.303 16.108 105.587 18.308 102.155 18.308C101.275 18.308 100.322 18.1613 99.2953 17.868V22.51L96.3473 22.906V5.416H97.7553L98.5253 6.362C99.772 5.526 101.011 5.108 102.243 5.108ZM101.429 7.374C100.681 7.374 99.97 7.57933 99.2953 7.99V15.734C99.9846 15.9393 100.689 16.042 101.407 16.042C102.463 16.042 103.219 15.6753 103.673 14.942C104.128 14.194 104.355 13.116 104.355 11.708C104.355 8.81867 103.38 7.374 101.429 7.374ZM112.406 14.942C112.787 15.6753 113.52 16.042 114.606 16.042C115.691 16.042 116.424 15.6753 116.806 14.942C117.187 14.2087 117.378 13.1307 117.378 11.708C117.378 10.2853 117.187 9.20733 116.806 8.474C116.424 7.74067 115.691 7.374 114.606 7.374C113.52 7.374 112.787 7.74067 112.406 8.474C112.024 9.20733 111.834 10.2853 111.834 11.708C111.834 13.1307 112.024 14.2087 112.406 14.942ZM120.326 11.708C120.326 16.108 118.419 18.308 114.606 18.308C110.792 18.308 108.886 16.108 108.886 11.708C108.886 7.308 110.792 5.108 114.606 5.108C118.419 5.108 120.326 7.308 120.326 11.708ZM126.833 18.308C124.252 18.308 122.961 16.9733 122.961 14.304V5.416H125.909V13.82C125.909 14.5827 126.056 15.1473 126.349 15.514C126.657 15.866 127.163 16.042 127.867 16.042C128.865 16.042 129.811 15.5727 130.705 14.634V5.416H133.653V18H131.739L130.903 16.482C129.759 17.6993 128.403 18.308 126.833 18.308ZM140.739 18H137.791V5.416H139.177L140.343 7.374C141.355 5.93667 142.785 5.18133 144.633 5.108V7.638C142.902 7.682 141.604 8.21 140.739 9.222V18ZM155.03 8.43C154.664 9.134 154.48 10.2267 154.48 11.708C154.48 13.1893 154.664 14.282 155.03 14.986C155.412 15.69 156.064 16.042 156.988 16.042C157.927 16.042 158.594 15.8513 158.99 15.47C159.401 15.0887 159.621 14.4873 159.65 13.666L161.96 13.776C161.872 15.272 161.432 16.4013 160.64 17.164C159.863 17.9267 158.58 18.308 156.79 18.308C154.693 18.308 153.263 17.626 152.5 16.262C152.134 15.602 151.877 14.9127 151.73 14.194C151.598 13.4753 151.532 12.6467 151.532 11.708C151.532 10.7547 151.598 9.91867 151.73 9.2C151.877 8.46667 152.134 7.77733 152.5 7.132C153.248 5.78267 154.678 5.108 156.79 5.108C158.565 5.108 159.841 5.47467 160.618 6.208C161.396 6.92667 161.836 8.00467 161.938 9.442L159.65 9.75C159.621 8.92867 159.401 8.32733 158.99 7.946C158.594 7.56467 157.927 7.374 156.988 7.374C156.064 7.374 155.412 7.726 155.03 8.43ZM167.551 6.186C168.754 5.46733 170.015 5.108 171.335 5.108C172.67 5.108 173.66 5.46733 174.305 6.186C174.95 6.89 175.273 7.86533 175.273 9.112V18H172.325V9.42C172.325 8.672 172.186 8.144 171.907 7.836C171.643 7.528 171.174 7.374 170.499 7.374C169.443 7.374 168.46 7.704 167.551 8.364V18H164.603V1.456L167.551 1.236V6.186ZM183.613 5.108C186.81 5.108 188.409 6.56733 188.409 9.486V18H186.495L185.659 16.46C184.486 17.692 183.114 18.308 181.545 18.308C180.43 18.308 179.58 18 178.993 17.384C178.421 16.7533 178.135 15.9173 178.135 14.876C178.135 13.82 178.465 12.9693 179.125 12.324C179.785 11.6787 181.017 11.224 182.821 10.96L185.461 10.564V9.508C185.461 8.08533 184.786 7.374 183.437 7.374C182.161 7.374 181.406 8.01933 181.171 9.31L178.883 8.628C179.44 6.28133 181.017 5.108 183.613 5.108ZM182.491 16.152C183.488 16.152 184.478 15.6607 185.461 14.678V12.412L183.349 12.786C182.396 12.9473 181.765 13.204 181.457 13.556C181.149 13.908 180.995 14.304 180.995 14.744C180.995 15.184 181.127 15.5287 181.391 15.778C181.655 16.0273 182.022 16.152 182.491 16.152ZM194.65 6.56C196.029 5.592 197.437 5.108 198.874 5.108C200.326 5.108 201.375 5.46733 202.02 6.186C202.665 6.89 202.988 7.86533 202.988 9.112V18H200.04V9.42C200.04 8.672 199.901 8.144 199.622 7.836C199.358 7.528 198.889 7.374 198.214 7.374C197.158 7.374 196.175 7.704 195.266 8.364V18H192.318V5.416H193.704L194.65 6.56ZM215.2 12.786C214.863 13.2553 214.349 13.6293 213.66 13.908C212.971 14.172 212.157 14.304 211.218 14.304C210.294 14.304 209.524 14.194 208.908 13.974L208.292 14.634C208.043 14.8833 207.918 15.1253 207.918 15.36C207.918 15.712 208.16 15.888 208.644 15.888H213.33C214.489 15.888 215.398 16.2033 216.058 16.834C216.733 17.4647 217.07 18.2053 217.07 19.056C217.07 19.9067 216.894 20.5813 216.542 21.08C216.19 21.5787 215.684 21.9453 215.024 22.18C213.909 22.576 212.479 22.774 210.734 22.774C209.003 22.774 207.669 22.5613 206.73 22.136C205.791 21.7253 205.322 21.014 205.322 20.002C205.322 19.518 205.461 19.078 205.74 18.682C206.019 18.3007 206.363 18.0073 206.774 17.802C205.879 17.5233 205.432 16.8707 205.432 15.844C205.432 15.1693 205.696 14.546 206.224 13.974L207.236 12.918C206.547 12.126 206.202 11.0553 206.202 9.706C206.202 8.518 206.525 7.49133 207.17 6.626C207.903 5.614 209.238 5.108 211.174 5.108C212.01 5.108 212.736 5.21067 213.352 5.416H217.026V7.154H215.574C215.97 7.87267 216.168 8.628 216.168 9.42C216.168 10.1973 216.095 10.8353 215.948 11.334C215.801 11.8327 215.552 12.3167 215.2 12.786ZM211.174 7.066C209.737 7.066 209.018 7.946 209.018 9.706C209.018 11.466 209.737 12.346 211.174 12.346C212.626 12.346 213.352 11.466 213.352 9.706C213.352 7.946 212.626 7.066 211.174 7.066ZM208.006 19.342C208.006 19.87 208.241 20.2073 208.71 20.354C209.194 20.5007 209.986 20.574 211.086 20.574C212.186 20.574 212.963 20.486 213.418 20.31C213.887 20.1487 214.122 19.7893 214.122 19.232C214.122 18.4107 213.55 18 212.406 18H208.644C208.219 18.3813 208.006 18.8287 208.006 19.342ZM223.981 18.308C221.957 18.308 220.512 17.7653 219.647 16.68C218.781 15.58 218.349 13.9227 218.349 11.708C218.349 7.308 220.197 5.108 223.893 5.108C226.019 5.108 227.471 5.768 228.249 7.088C228.923 8.21733 229.261 9.684 229.261 11.488V12.28H221.209C221.223 13.6587 221.451 14.634 221.891 15.206C222.331 15.7633 223.057 16.042 224.069 16.042C225.697 16.042 226.562 15.4553 226.665 14.282L229.085 14.37C228.85 16.9953 227.149 18.308 223.981 18.308ZM225.675 8.1C225.308 7.616 224.707 7.374 223.871 7.374C223.035 7.374 222.419 7.60867 222.023 8.078C221.641 8.53267 221.392 9.266 221.275 10.278H226.357C226.269 9.29533 226.041 8.56933 225.675 8.1ZM234.969 18H232.021V5.416H233.407L234.573 7.374C235.585 5.93667 237.015 5.18133 238.863 5.108V7.638C237.132 7.682 235.834 8.21 234.969 9.222V18ZM94.7734 47.308C91.9427 47.308 90.5274 45.108 90.5274 40.708C90.5274 36.308 92.2434 34.108 95.6754 34.108C96.6434 34.108 97.5967 34.284 98.5354 34.636V30.456L101.483 30.236V47H99.5694L98.7554 45.438C97.538 46.6847 96.2107 47.308 94.7734 47.308ZM95.9394 45.042C96.8487 45.042 97.714 44.5727 98.5354 43.634V36.814C97.8167 36.5207 97.1127 36.374 96.4234 36.374C95.3674 36.374 94.612 36.7407 94.1574 37.474C93.7027 38.2073 93.4754 39.2853 93.4754 40.708C93.4754 43.5973 94.2967 45.042 95.9394 45.042ZM105.794 33.624C105.794 33.448 105.72 33.1473 105.574 32.722C105.427 32.282 105.354 31.908 105.354 31.6C105.354 31.2773 105.368 31.0353 105.398 30.874C105.427 30.698 105.486 30.5147 105.574 30.324C105.735 29.9573 106.138 29.774 106.784 29.774C107.825 29.774 108.346 30.346 108.346 31.49C108.346 33.2793 107.414 34.8633 105.552 36.242L104.782 35.362C105.456 34.8633 105.794 34.284 105.794 33.624ZM115.54 34.108C118.737 34.108 120.336 35.5673 120.336 38.486V47H118.422L117.586 45.46C116.412 46.692 115.041 47.308 113.472 47.308C112.357 47.308 111.506 47 110.92 46.384C110.348 45.7533 110.062 44.9173 110.062 43.876C110.062 42.82 110.392 41.9693 111.052 41.324C111.712 40.6787 112.944 40.224 114.748 39.96L117.388 39.564V38.508C117.388 37.0853 116.713 36.374 115.364 36.374C114.088 36.374 113.332 37.0193 113.098 38.31L110.81 37.628C111.367 35.2813 112.944 34.108 115.54 34.108ZM114.418 45.152C115.415 45.152 116.405 44.6607 117.388 43.678V41.412L115.276 41.786C114.322 41.9473 113.692 42.204 113.384 42.556C113.076 42.908 112.922 43.304 112.922 43.744C112.922 44.184 113.054 44.5287 113.318 44.778C113.582 45.0273 113.948 45.152 114.418 45.152ZM129.811 47H126.533L122.265 34.416H125.235L128.161 43.524L131.109 34.416H134.079L129.811 47ZM136.233 34.416H139.181V47H136.233V34.416ZM137.707 32.92C136.607 32.92 136.057 32.3553 136.057 31.226C136.057 30.082 136.607 29.51 137.707 29.51C138.836 29.51 139.401 30.082 139.401 31.226C139.401 32.3553 138.836 32.92 137.707 32.92ZM152.321 43.48C152.321 45.988 150.561 47.242 147.041 47.242C145.501 47.242 144.357 46.912 143.609 46.252C142.861 45.5773 142.392 44.602 142.201 43.326L144.489 42.974C144.65 44.382 145.523 45.086 147.107 45.086C148.706 45.086 149.505 44.5873 149.505 43.59C149.505 43.1793 149.344 42.8713 149.021 42.666C148.713 42.4607 148.082 42.248 147.129 42.028L146.117 41.786C144.812 41.478 143.873 41.0307 143.301 40.444C142.744 39.8427 142.465 38.9773 142.465 37.848C142.465 35.3547 144.166 34.108 147.569 34.108C149.036 34.108 150.128 34.4453 150.847 35.12C151.58 35.78 152.035 36.748 152.211 38.024L149.923 38.354C149.762 36.9607 148.948 36.264 147.481 36.264C146.029 36.264 145.303 36.7627 145.303 37.76C145.303 38.1707 145.442 38.486 145.721 38.706C146.014 38.9113 146.601 39.1167 147.481 39.322L148.625 39.608C149.93 39.9307 150.869 40.3853 151.441 40.972C152.028 41.544 152.321 42.38 152.321 43.48Z" fill="black"/>
</svg>
